<?xml version="1.0" encoding="UTF-8" standalone="no"?>
<!-- Created with Inkscape (http://www.inkscape.org/) -->

<svg
   width="256mm"
   height="256mm"
   viewBox="0 0 256 256"
   version="1.1"
   id="svg5"
   inkscape:version="1.1.1 (c3084ef, 2021-09-22)"
   sodipodi:docname="Logo.svg"
   xmlns:inkscape="http://www.inkscape.org/namespaces/inkscape"
   xmlns:sodipodi="http://sodipodi.sourceforge.net/DTD/sodipodi-0.dtd"
   xmlns="http://www.w3.org/2000/svg"
   xmlns:svg="http://www.w3.org/2000/svg">
  <sodipodi:namedview
     id="namedview7"
     pagecolor="#505050"
     bordercolor="#ffffff"
     borderopacity="1"
     inkscape:pageshadow="0"
     inkscape:pageopacity="0"
     inkscape:pagecheckerboard="1"
     inkscape:document-units="mm"
     showgrid="false"
     inkscape:zoom="0.48996914"
     inkscape:cx="262.26142"
     inkscape:cy="465.33543"
     inkscape:window-width="1280"
     inkscape:window-height="778"
     inkscape:window-x="0"
     inkscape:window-y="0"
     inkscape:window-maximized="0"
     inkscape:current-layer="layer1" />
  <defs
     id="defs2" />
  <g
     inkscape:label="Layer 1"
     inkscape:groupmode="layer"
     id="layer1"
     transform="translate(-8.6399994,-72.900002)">
    <rect
       style="fill:#598392;stroke-width:0.264583;fill-opacity:1"
       id="rect1149-3"
       width="64"
       height="64"
       x="72.639999"
       y="136.88" />
    <rect
       style="fill:#598392;stroke-width:0.264583;fill-opacity:1"
       id="rect1149-2-6"
       width="64"
       height="64"
       x="72.639999"
       y="264.86002" />
    <rect
       style="fill:#598392;stroke-width:0.264583;fill-opacity:1"
       id="rect1149-2-67"
       width="64"
       height="64"
       x="136.64003"
       y="200.88" />
    <rect
       style="fill:#aec3b0;stroke-width:0.264583;fill-opacity:1"
       id="rect1399-8"
       width="32"
       height="32"
       x="40.639999"
       y="104.88" />
    <rect
       style="fill:#0000ff;stroke-width:0.264583"
       id="rect1399-74"
       width="32"
       height="32"
       x="104.64"
       y="104.88" />
    <rect
       style="fill:#aec3b0;stroke-width:0.264583;fill-opacity:1"
       id="rect1399-4"
       width="32"
       height="32"
       x="136.64"
       y="72.900002" />
    <rect
       style="fill:#0000ff;stroke-width:0.264583"
       id="rect1399-9"
       width="32"
       height="32"
       x="168.64001"
       y="104.88" />
    <rect
       style="fill:#aec3b0;stroke-width:0.264583;fill-opacity:1"
       id="rect1399-82"
       width="32"
       height="32"
       x="40.639999"
       y="168.88" />
    <rect
       style="fill:#aec3b0;stroke-width:0.264583;fill-opacity:1"
       id="rect1399-98"
       width="32"
       height="32"
       x="72.639999"
       y="136.88" />
    <rect
       style="fill:#aec3b0;stroke-width:0.264583;fill-opacity:1"
       id="rect1399-2"
       width="32"
       height="32"
       x="104.64003"
       y="168.88" />
    <rect
       style="fill:#aec3b0;stroke-width:0.264583;fill-opacity:1"
       id="rect1399-0"
       width="32"
       height="32"
       x="136.64001"
       y="136.88" />
    <rect
       style="fill:#01161e;fill-opacity:1;stroke-width:0.264583"
       id="rect1399-0-7"
       width="32"
       height="32"
       x="136.34999"
       y="168.88" />
    <rect
       style="fill:#aec3b0;stroke-width:0.264583;fill-opacity:1"
       id="rect1399-748"
       width="32"
       height="32"
       x="168.64003"
       y="168.88" />
    <rect
       style="fill:#aec3b0;stroke-width:0.264583;fill-opacity:1"
       id="rect1399-58"
       width="32"
       height="32"
       x="200.64001"
       y="136.88" />
    <rect
       style="fill:#0000ff;stroke-width:0.264583"
       id="rect1399-22"
       width="32"
       height="32"
       x="40.639999"
       y="232.86002" />
    <rect
       style="fill:#aec3b0;stroke-width:0.264583;fill-opacity:1"
       id="rect1399-52"
       width="32"
       height="32"
       x="72.639999"
       y="200.88" />
    <rect
       style="fill:#aec3b0;stroke-width:0.264583;fill-opacity:1"
       id="rect1399-27"
       width="32"
       height="32"
       x="104.63999"
       y="232.86" />
    <rect
       style="fill:#aec3b0;stroke-width:0.264583;fill-opacity:1"
       id="rect1399-15"
       width="32"
       height="32"
       x="136.64003"
       y="200.88" />
    <rect
       style="fill:#aec3b0;stroke-width:0.264583;fill-opacity:1"
       id="rect1399-21"
       width="32"
       height="32"
       x="168.64003"
       y="232.88" />
    <rect
       style="fill:#aec3b0;stroke-width:0.264583;fill-opacity:1"
       id="rect1399-28"
       width="32"
       height="32"
       x="136.64003"
       y="264.88" />
    <rect
       style="fill:#0000ff;stroke-width:0.264583"
       id="rect1399-59"
       width="32"
       height="32"
       x="104.64"
       y="296.86002" />
    <rect
       style="fill:#0000ff;stroke-width:0.264583"
       id="rect1399-43"
       width="32"
       height="32"
       x="72.639999"
       y="264.88" />
    <path
       style="fill:#eff6e0;stroke:#01161e;stroke-width:1.165;stroke-linecap:butt;stroke-linejoin:miter;stroke-opacity:1;fill-opacity:1;stroke-miterlimit:4;stroke-dasharray:none"
       d="M 232.64001,168.86002 200.64,136.88001 v -31.99999 h -32 l -32,-31.999998 -32,31.979998 -32.000001,0.02 -32,31.99999 v 31.98001 c 10.666667,10.66667 33.485837,33.62604 32,32.01998 l -32,31.96002 v 32.01999 l 32,32 32.000001,31.98001 h 32 L 168.64001,296.88 h 32 v -32 l 32,-32 -31.99998,-0.02 -32,32 -32.00003,31.98001 -32,0.04 0,-32.00001 -32.000001,-32 32.000001,-32 -32.000001,-32.01997 32.000001,-32 h 32.00001 32 l 32.00002,32 z"
       id="path1869"
       sodipodi:nodetypes="cccccccccccccccccccccccccccccccc" />
    <path
       style="fill:#ffffff;stroke-width:2.04094"
       d="m 242.75457,785.76378 c 0,-33.11433 0.28068,-46.6611 0.62373,-30.10394 0.34306,16.55717 0.34306,43.65071 0,60.20788 -0.34305,16.55716 -0.62373,3.01039 -0.62373,-30.10394 z"
       id="path2883"
       transform="matrix(0.26458333,0,0,0.26458333,8.6399994,72.900002)" />
    <path
       style="fill:none;stroke:#01161e;stroke-width:1.165;stroke-linecap:butt;stroke-linejoin:miter;stroke-miterlimit:4;stroke-dasharray:none;stroke-opacity:1"
       d="m 136.64,72.900002 h -32 L 72.639998,104.9 h -32 v 31.98 32.01999 L 9.3200006,200.88 40.639998,232.84002 V 264.88 296.86001 l 32,32 H 104.64 h 32 l 32.00001,0.04 32,-32 32,-32 v -32 l -32,-32.01999 32,-32 v -32 L 200.64,104.9 l -32,-31.999998 z"
       id="path7201"
       sodipodi:nodetypes="ccccccccccccccccccccccc" />
    <path
       style="fill:#01161e;fill-opacity:1;stroke:#aec3b0;stroke-width:0;stroke-miterlimit:4;stroke-dasharray:none;stroke-opacity:1"
       d="m 123.47717,787.30816 v -57.64303 l 57.14645,57.11912 c 31.43055,31.41552 57.14646,57.35488 57.14646,57.64303 0,0.28814 -25.71591,0.5239 -57.14646,0.5239 h -57.14645 z"
       id="path7960"
       transform="matrix(0.26458333,0,0,0.26458333,8.6399994,72.900002)" />
    <path
       style="fill:#01161e;fill-opacity:1;stroke:#aec3b0;stroke-width:0;stroke-miterlimit:4;stroke-dasharray:none;stroke-opacity:1"
       d="m 303.08031,664.32756 -58.14007,-58.16693 h 58.66374 58.66374 v 58.16693 c 0,31.99181 -0.23565,58.16693 -0.52367,58.16693 -0.28801,0 -26.68669,-26.17512 -58.66374,-58.16693 z"
       id="path8036"
       transform="matrix(0.26458333,0,0,0.26458333,8.6399994,72.900002)" />
    <path
       style="fill:#01161e;fill-opacity:1;stroke:#aec3b0;stroke-width:0;stroke-miterlimit:4;stroke-dasharray:none;stroke-opacity:1"
       d="m 364.30866,543.91181 v -60.20787 h 59.1874 59.1874 v 60.20787 60.20788 h -59.1874 -59.1874 z"
       id="path8075"
       transform="matrix(0.26458333,0,0,0.26458333,8.6399994,72.900002)" />
    <path
       style="fill:#01161e;fill-opacity:1;stroke:#aec3b0;stroke-width:0;stroke-miterlimit:4;stroke-dasharray:none;stroke-opacity:1"
       d="m 605.14016,302.58351 v -58.66374 l 58.16693,58.14007 c 31.99181,31.97704 58.16693,58.37572 58.16693,58.66374 0,0.28801 -26.17512,0.52366 -58.16693,0.52366 h -58.16693 z"
       id="path8153"
       transform="matrix(0.26458333,0,0,0.26458333,8.6399994,72.900002)" />
    <path
       style="fill:#01161e;fill-opacity:1;stroke:#aec3b0;stroke-width:0;stroke-miterlimit:4;stroke-dasharray:none;stroke-opacity:1"
       d="m 727.59685,184.20919 v -56.6223 l 56.12598,56.09815 c 30.8693,30.85398 56.12599,56.33402 56.12599,56.6223 0,0.28829 -25.25669,0.52416 -56.12599,0.52416 h -56.12598 z"
       id="path8192"
       transform="matrix(0.26458333,0,0,0.26458333,8.6399994,72.900002)" />
    <path
       style="fill:#124559;fill-opacity:1;stroke:#aec3b0;stroke-width:0;stroke-miterlimit:4;stroke-dasharray:none;stroke-opacity:1"
       d="M 364.30866,59.187402 V 2.0409449 h 57.64303 57.64302 L 422.47559,59.187402 c -31.41551,31.430551 -57.35488,57.146458 -57.64302,57.146458 -0.28815,0 -0.52391,-25.715907 -0.52391,-57.146458 z"
       id="path8428"
       transform="matrix(0.26458333,0,0,0.26458333,8.6399994,72.900002)" />
    <path
       style="fill:#124559;fill-opacity:1;stroke:#aec3b0;stroke-width:0;stroke-miterlimit:4;stroke-dasharray:none;stroke-opacity:1"
       d="m 785.76378,667.38898 c 31.41552,-31.43055 57.35488,-57.14646 57.64302,-57.14646 0.28815,0 0.52391,25.71591 0.52391,57.14646 v 57.14645 h -57.64303 -57.64302 z"
       id="path8504"
       transform="matrix(0.26458333,0,0,0.26458333,8.6399994,72.900002)" />
    <path
       style="fill:#124559;fill-opacity:1;stroke:#aec3b0;stroke-width:0;stroke-miterlimit:4;stroke-dasharray:none;stroke-opacity:1"
       d="m 544.93228,908.22047 c 31.41552,-31.43055 57.35488,-57.14645 57.64303,-57.14645 0.28814,0 0.5239,25.7159 0.5239,57.14645 v 57.14646 h -57.64302 -57.64303 z"
       id="path8543"
       transform="matrix(0.26458333,0,0,0.26458333,8.6399994,72.900002)" />
    <path
       style="fill:#124559;fill-opacity:1;stroke:#aec3b0;stroke-width:0;stroke-miterlimit:4;stroke-dasharray:none;stroke-opacity:1"
       d="m 364.30866,302.05984 v -59.1874 h 59.1874 59.1874 v 59.1874 59.1874 h -59.1874 -59.1874 z"
       id="path8881"
       transform="matrix(0.26458333,0,0,0.26458333,8.6399994,72.900002)" />
    <path
       style="fill:#598392;fill-opacity:1;stroke:#aec3b0;stroke-width:0;stroke-miterlimit:4;stroke-dasharray:none;stroke-opacity:1"
       d="m 364.30866,302.05984 v -59.1874 h 59.1874 59.1874 v 59.1874 59.1874 h -59.1874 -59.1874 z"
       id="path8920"
       transform="matrix(0.26458333,0,0,0.26458333,8.6399994,72.900002)" />
    <path
       style="fill:#598392;fill-opacity:1;stroke:#aec3b0;stroke-width:0;stroke-miterlimit:4;stroke-dasharray:none;stroke-opacity:1"
       d="m 303.08031,421.45512 -58.14007,-58.16693 h 58.66374 58.66374 v 58.16693 c 0,31.99181 -0.23565,58.16693 -0.52367,58.16693 -0.28801,0 -26.68669,-26.17512 -58.66374,-58.16693 z"
       id="path8996"
       transform="matrix(0.26458333,0,0,0.26458333,8.6399994,72.900002)" />
    <path
       style="fill:#598392;fill-opacity:1;stroke:#aec3b0;stroke-width:0;stroke-miterlimit:4;stroke-dasharray:none;stroke-opacity:1"
       d="m 123.47717,540.85039 v -57.14645 h 57.64302 57.64302 l -57.11912,57.14645 c -31.41551,31.43055 -57.35487,57.14646 -57.64302,57.14646 -0.28815,0 -0.5239,-25.71591 -0.5239,-57.14646 z"
       id="path9035"
       transform="matrix(0.26458333,0,0,0.26458333,8.6399994,72.900002)" />
    <path
       style="fill:#598392;fill-opacity:1;stroke:#aec3b0;stroke-width:0;stroke-miterlimit:4;stroke-dasharray:none;stroke-opacity:1"
       d="m 242.77471,962.78678 c -0.54455,-1.41908 -0.74534,-27.60097 -0.44618,-58.18197 l 0.54391,-55.60183 58.1535,58.18197 58.1535,58.18198 h -57.70732 c -44.62862,0 -57.93171,-0.58476 -58.69741,-2.58015 z"
       id="path9074"
       transform="matrix(0.26458333,0,0,0.26458333,8.6399994,72.900002)" />
    <path
       style="fill:#598392;fill-opacity:1;stroke:#aec3b0;stroke-width:0;stroke-miterlimit:4;stroke-dasharray:none;stroke-opacity:1"
       d="m 364.30866,785.76378 v -59.1874 h 59.1874 59.1874 v 59.1874 59.1874 h -59.1874 -59.1874 z"
       id="path9113"
       transform="matrix(0.26458333,0,0,0.26458333,8.6399994,72.900002)" />
    <path
       style="fill:#598392;fill-opacity:1;stroke:#aec3b0;stroke-width:0;stroke-miterlimit:4;stroke-dasharray:none;stroke-opacity:1"
       d="m 484.72441,665.34803 v -59.1874 h 59.1874 59.1874 v 59.1874 59.1874 h -59.1874 -59.1874 z"
       id="path9152"
       transform="matrix(0.26458333,0,0,0.26458333,8.6399994,72.900002)" />
    <path
       style="fill:#598392;fill-opacity:1;stroke:#aec3b0;stroke-width:0;stroke-miterlimit:4;stroke-dasharray:none;stroke-opacity:1"
       d="m 605.14016,543.91181 v -60.20787 h 57.75874 c 42.2022,0 58.41838,0.65964 60.20787,2.44913 1.78949,1.78949 2.44914,18.00567 2.44914,60.20787 v 57.75875 h -60.20788 -60.20787 z"
       id="path9191"
       transform="matrix(0.26458333,0,0,0.26458333,8.6399994,72.900002)" />
    <path
       style="fill:#598392;fill-opacity:1;stroke:#aec3b0;stroke-width:0;stroke-miterlimit:4;stroke-dasharray:none;stroke-opacity:1"
       d="m 727.59685,419.41417 v -56.12598 h 56.6223 56.62231 l -56.09815,56.12598 c -30.85399,30.86929 -56.33402,56.12599 -56.62231,56.12599 -0.28828,0 -0.52415,-25.2567 -0.52415,-56.12599 z"
       id="path9230"
       transform="matrix(0.26458333,0,0,0.26458333,8.6399994,72.900002)" />
    <path
       style="fill:#aec3b0;fill-opacity:1;stroke:#aec3b0;stroke-width:0;stroke-miterlimit:4;stroke-dasharray:none;stroke-opacity:1"
       d="m 183.68504,904.13858 -57.11912,-57.14645 h 57.64302 57.64303 v 57.14645 c 0,31.43055 -0.23576,57.14646 -0.52391,57.14646 -0.28814,0 -26.22751,-25.71591 -57.64302,-57.14646 z"
       id="path10492"
       transform="matrix(0.26458333,0,0,0.26458333,8.6399994,72.900002)" />
    <path
       style="fill:#aec3b0;fill-opacity:1;stroke:#aec3b0;stroke-width:0;stroke-miterlimit:4;stroke-dasharray:none;stroke-opacity:1"
       d="m 605.14016,904.13858 v -57.14645 h 57.64302 57.64303 l -57.11912,57.14645 c -31.41552,31.43055 -57.35488,57.14646 -57.64303,57.14646 -0.28815,0 -0.5239,-25.71591 -0.5239,-57.14646 z"
       id="path10568"
       transform="matrix(0.26458333,0,0,0.26458333,8.6399994,72.900002)" />
    <path
       style="fill:#aec3b0;fill-opacity:1;stroke:#aec3b0;stroke-width:0;stroke-miterlimit:4;stroke-dasharray:none;stroke-opacity:1"
       d="m 727.59685,782.70236 v -56.12598 h 56.6223 56.62231 l -56.09815,56.12598 c -30.85399,30.86929 -56.33402,56.12599 -56.62231,56.12599 -0.28828,0 -0.52415,-25.2567 -0.52415,-56.12599 z"
       id="path10607"
       transform="matrix(0.26458333,0,0,0.26458333,8.6399994,72.900002)" />
    <path
       style="fill:#aec3b0;fill-opacity:1;stroke:#aec3b0;stroke-width:0;stroke-miterlimit:4;stroke-dasharray:none;stroke-opacity:1"
       d="m 727.59685,547.49738 v -56.6223 l 56.12598,56.09815 c 30.8693,30.85398 56.12599,56.33402 56.12599,56.6223 0,0.28829 -25.25669,0.52416 -56.12599,0.52416 h -56.12598 z"
       id="path10646"
       transform="matrix(0.26458333,0,0,0.26458333,8.6399994,72.900002)" />
    <path
       style="fill:#aec3b0;fill-opacity:1;stroke:#aec3b0;stroke-width:0;stroke-miterlimit:4;stroke-dasharray:none;stroke-opacity:1"
       d="m 304.38184,62.986492 56.8654,-56.8942304 0.5436,55.4275954 c 0.29898,30.485177 0.29898,55.632343 0,55.882583 -0.29898,0.25024 -26.13303,0.91023 -57.409,1.46664 l -56.8654,1.01164 z"
       id="path10685"
       transform="matrix(0.26458333,0,0,0.26458333,8.6399994,72.900002)" />
    <path
       style="fill:#eff6e0;stroke:#01161e;stroke-width:1.165;stroke-linecap:butt;stroke-linejoin:miter;stroke-opacity:1;stroke-miterlimit:4;stroke-dasharray:none;fill-opacity:1"
       d="m 168.20999,169.02 -31.86,31.86 -31.31999,31.86 h 31.31999 l 31.86,-31.86 0.43004,-32 z"
       id="path11237" />
    <path
       style="fill:#598392;fill-opacity:1;stroke:#01161e;stroke-width:0;stroke-miterlimit:4;stroke-dasharray:none;stroke-opacity:1"
       d="M 605.14016,61.7525 V 5.1301956 l 56.12598,56.0981504 c 30.86929,30.853983 56.12599,56.334024 56.12599,56.622304 0,0.28829 -25.2567,0.52415 -56.12599,0.52415 h -56.12598 z"
       id="path11556"
       transform="matrix(0.26458333,0,0,0.26458333,8.6399994,72.900002)" />
    <path
       style="fill:#aec3b0;fill-opacity:1;stroke:#aec3b0;stroke-width:0;stroke-miterlimit:4;stroke-dasharray:none;stroke-opacity:1"
       d="M 66.330709,544.3805 C 36.583937,514.19613 11.511214,488.19575 10.613546,486.60188 c -1.3929134,-2.47321 6.758342,-2.89794 55.615748,-2.89794 h 57.247876 v 57.026 c 0,31.36431 -0.68882,57.36469 -1.53071,57.77862 -0.84189,0.41394 -25.86898,-23.94369 -55.615751,-54.12806 z"
       id="path12388"
       transform="matrix(0.26458333,0,0,0.26458333,8.6399994,72.900002)" />
    <path
       style="fill:#124559;fill-opacity:1;stroke:#aec3b0;stroke-width:0;stroke-miterlimit:4;stroke-dasharray:none;stroke-opacity:1"
       d="m 10.613546,480.82753 c 0.897668,-1.58203 25.740785,-27.26214 55.206926,-57.06692 L 119.39528,369.5701 v 57.06692 57.06692 H 64.188349 c -46.906103,0 -54.9615231,-0.4325 -53.574803,-2.87641 z"
       id="path12661"
       transform="matrix(0.26458333,0,0,0.26458333,8.6399994,72.900002)" />
  </g>
</svg>
